<?xml version="1.0" encoding="UTF-8" standalone="no"?>
<!-- Created with Inkscape (http://www.inkscape.org/) -->

<svg
   width="512"
   height="512"
   viewBox="0 0 512 512"
   version="1.1"
   id="svg1"
   xml:space="preserve"
   xmlns:inkscape="http://www.inkscape.org/namespaces/inkscape"
   xmlns:sodipodi="http://sodipodi.sourceforge.net/DTD/sodipodi-0.dtd"
   xmlns="http://www.w3.org/2000/svg"
   xmlns:svg="http://www.w3.org/2000/svg"><sodipodi:namedview
     id="namedview1"
     pagecolor="#ffffff"
     bordercolor="#000000"
     borderopacity="0.25"
     inkscape:showpageshadow="2"
     inkscape:pageopacity="0.0"
     inkscape:pagecheckerboard="0"
     inkscape:deskcolor="#d1d1d1"
     inkscape:document-units="px" /><defs
     id="defs1" /><g
     inkscape:label="Layer 1"
     inkscape:groupmode="layer"
     id="layer1"><path
       style="fill:#000000;stroke-width:1.40754"
       d="m 255.649,506.24937 c -10.41254,0 -20.82507,0 -31.23761,0 0,-83.71855 0,-167.43709 0,-251.15564 -17.81849,-17.54281 -35.63697,-35.08563 -53.45545,-52.62845 0.8149,-21.57877 -0.7824,-43.45625 1.54936,-64.84719 3.71545,-17.2941 12.12161,-33.42881 23.94048,-46.583086 0.46591,22.298156 -5.02833,45.850296 3.73803,67.059416 11.26616,29.1788 47.16018,43.24205 76.02068,33.15576 27.59308,-8.72577 43.53828,-39.09638 40.30201,-67.03631 -1.80825,-10.91278 -1.64031,-22.04587 -1.52085,-33.178866 17.50753,19.047036 27.78079,44.941366 25.63806,70.947666 0.15152,13.23834 0.30306,26.47669 0.45459,39.71503 -17.5959,18.02868 -36.48927,35.21502 -53.286,53.76254 -2.0899,19.91086 -0.29747,40.53489 -0.8959,60.71973 -0.006,63.35647 0.005,126.71294 -0.0106,190.0694 -10.41228,0 -20.82455,0 -31.23683,0 z m -0.26227,-21.76103 c 11.26756,0.63364 9.07402,-13.29276 9.0346,-20.76489 -0.0108,-64.32817 -0.0215,-128.65634 -0.0323,-192.98451 -4.63563,-6.33874 -10.67489,-12.65108 -15.28874,-2.42435 -4.81381,7.77402 -1.01539,18.421 -2.22486,27.3974 0.24584,60.41985 -0.4806,120.97223 0.37029,181.30961 0.37833,3.684 4.04771,8.29099 8.14104,7.46674 z m 2.71915,-228.17591 c 20.12653,-19.0348 39.26251,-39.17176 59.00954,-58.62883 -1.28521,-5.55599 2.92737,-24.35928 -5.30555,-13.17414 -18.78061,18.1907 -37.18921,36.76413 -55.82422,55.10462 -21.15712,-19.1154 -40.45501,-40.26172 -61.7589,-59.24147 0.73805,8.08025 -2.99819,18.02642 5.78645,22.751 18.53382,18.40046 37.15565,36.71386 55.6358,55.16742 0.81896,-0.65953 1.63792,-1.31907 2.45688,-1.9786 z m -2.36186,-37.87014 c 8.21071,-0.18518 3.41137,-13.74434 -3.09682,-8.21479 -3.85258,2.10147 -0.53831,8.59978 3.09682,8.21479 z m -49.04686,147.16005 c -0.062,34.89699 -0.12397,69.79399 -0.18596,104.69098 C 141.72097,452.47978 84.139027,408.13879 52.666885,348.51051 34.244836,313.84481 24.472022,274.39736 26.850899,235.07823 25.679738,189.7035 42.036519,145.00753 66.873134,107.49092 100.13412,58.487939 152.24206,22.779027 210.29174,10.55161 c 64.17178,-14.4239454 133.79784,2.90553 184.99938,43.829457 51.40016,40.326461 85.33237,102.521083 89.83832,167.828903 0.67755,27.65832 0.43764,55.74052 -8.38953,82.28607 -18.40391,65.7792 -67.93987,121.21502 -129.58889,149.84953 -13.69093,6.63777 -28.03347,11.95559 -42.71519,15.97052 0,-69.64655 0,-139.2931 0,-208.93965 17.72624,-17.42749 35.45249,-34.85496 53.17875,-52.28243 1.13611,-25.22228 0.99138,-50.67954 -1.11766,-75.75817 -7.36634,-34.858705 -32.99301,-61.458849 -57.32585,-85.822886 -0.23398,12.807562 -0.46797,25.615123 -0.70197,38.422685 -22.438,-21.004573 -60.71442,-21.379886 -83.7957,-1.339397 -4.27026,1.54207 -0.62034,-13.586084 -1.81446,-18.131311 -1.56164,-4.072654 3.32531,-22.382323 -2.63495,-17.353368 -26.15954,26.648886 -54.25802,57.232417 -56.59624,96.457227 -0.24531,20.96166 -0.0424,41.94845 -0.11559,62.91976 17.79018,17.47442 35.58036,34.94884 53.37054,52.42325 -0.0618,34.89685 -0.12369,69.79369 -0.18554,104.69054 z m -18.61263,76.05318 c 3.57938,-7.39668 -3.49725,-13.54977 -9.17978,-18.2579 -36.40732,-34.21303 -71.86286,-69.42139 -107.360231,-104.57389 -12.032005,-2.87978 -2.298055,8.58282 -0.282841,13.89556 21.319176,30.52374 49.187602,55.76456 75.291922,82.10044 12.21229,11.32703 26.44702,20.0541 41.53093,26.83579 z m 135.02154,0.0127 c 21.1019,-8.40399 39.29875,-22.45604 54.80539,-38.95546 10.91349,-7.70806 6.54735,-9.27222 -4.68274,-8.0764 11.77021,-14.24257 26.81132,-27.12937 39.83053,-40.85424 5.07849,-8.90537 19.22313,1.61902 21.99473,-9.60373 4.52415,-7.89619 8.85292,-16.10261 11.97603,-24.65273 -13.70316,0.63326 -28.44096,-1.26562 -41.49734,0.95055 -27.57485,27.27799 -55.61339,54.10294 -82.89915,81.66337 -0.0291,8.44366 -0.91319,19.03296 7.13753,7.20255 10.04222,-9.99915 20.08444,-19.99828 30.12667,-29.99742 5.94643,0.20325 20.68589,-2.27995 9.16785,5.70479 -15.45094,15.48005 -30.9019,30.9601 -46.35285,46.44014 0.29455,3.17213 -0.60224,7.7294 0.39335,10.17858 z m 79.5898,-94.79427 c -9.64114,-2.85075 1.54936,-12.16937 6.57702,-12.20396 12.35692,-1.34156 -5.2039,9.58 -6.57702,12.20396 z M 188.3513,415.69539 c -1.02006,-5.78913 3.4405,-19.28296 -2.45504,-21.05906 -7.35267,-0.61812 -11.47034,-9.55984 -17.39336,-13.65178 -21.03072,-20.41745 -41.71236,-41.19851 -62.99338,-61.35524 -5.55098,-0.30318 -22.006585,-3.39458 -11.118451,4.32307 31.155741,30.71156 62.011381,62.02037 93.960231,91.74301 z m -2.79876,-36.52521 c 6.5277,-2.74679 1.47703,-15.35007 3.05847,-22.05349 1.05323,-9.48158 1.07713,-17.93383 -10.85899,-14.42606 -9.09187,1.37697 -16.84615,-0.58942 -22.2518,-8.42624 -17.81959,-16.63986 -34.86607,-34.07334 -52.17838,-51.23394 -16.793063,0.33456 -34.929294,-0.67425 -50.892712,0.49009 1.114257,9.13833 3.948303,16.70262 14.560478,13.54129 11.067737,0.66395 23.208024,-1.32041 33.627374,0.94453 27.84949,26.76741 55.20918,54.03577 82.72926,81.14009 l 1.3573,0.0146 z m 142.7502,-1.38109 c 12.12094,0.76522 0.65651,-14.11738 -4.91378,-6.36429 -0.0983,4.62513 -1.11112,7.72245 4.91378,6.36429 z m 23.4365,-21.56027 c 9.07786,-5.07806 2.7453,-8.55612 -3.81697,-5.31287 1.19406,2.98479 -1.01474,11.57728 3.81697,5.31287 z m -22.76492,-2.65639 c 7.83904,-1.27878 1.37877,-14.04901 -4.30165,-8.31608 -3.75138,2.6092 0.0812,9.89096 4.30165,8.31608 z m 40.1834,-13.68964 c 7.32149,-0.14429 5.34167,-11.24806 -1.54364,-9.12558 -4.57267,2.66772 -3.37216,8.01433 1.54364,9.12558 z M 168.30474,324.14781 c 15.67897,0.0725 22.80291,-22.41164 10.36926,-31.88081 -5.70462,-5.7969 -15.3685,-2.15135 -19.54198,-10.22471 -15.09354,-14.88051 -30.1871,-29.76101 -45.28065,-44.64152 -22.017876,-0.002 -44.035753,-0.004 -66.053629,-0.006 1.839696,6.01329 -1.911879,18.43502 8.610378,14.74134 16.576567,0 33.153134,0 49.729701,0 15.20284,15.20826 30.4057,30.41652 45.60856,45.62476 -7.84144,11.15871 3.27392,28.22772 16.55836,26.38694 z m -0.97971,-10.23785 c -10.35414,1.4681 -10.71411,-16.16815 -0.26469,-15.44106 10.25055,-0.82296 11.57079,16.96669 0.26469,15.44106 z m 177.17343,10.45766 c 12.87818,0.65115 21.8603,-15.1666 15.45331,-26.20223 14.90789,-15.51767 30.4203,-30.43897 45.61091,-45.67773 18.82168,-0.234 37.64336,-0.46799 56.46504,-0.70197 1.06475,-8.22251 4.1397,-17.94591 -7.88029,-14.39036 -18.94168,0 -37.88336,0 -56.82504,0 -7.50201,7.6537 -15.00402,15.3074 -22.50604,22.96109 -10.19147,-10.199 -20.38294,-20.39801 -30.5744,-30.59702 -10.39283,4.00839 2.07133,10.0245 5.32823,14.78625 6.78012,6.96559 13.56176,13.92971 20.3426,20.89461 -8.25263,7.17653 -15.4687,16.88979 -24.36525,22.49044 -15.3481,-1.39345 -24.75237,18.84733 -14.73941,30.08896 3.27356,3.97204 8.42068,6.61357 13.69034,6.34796 z m -0.61163,-10.45766 c -9.80065,1.09443 -9.70209,-15.92012 0.14994,-15.3907 9.51973,-0.9395 10.93712,14.51079 1.54946,15.3907 h -1.35738 z m 41.59453,10.52952 c 11.98973,-1.89744 -4.54169,-15.65972 -3.12706,-2.50345 -0.67452,3.153 0.6822,2.56196 3.12706,2.50345 z M 128.25529,298.46662 c 8.93936,-0.23607 2.48965,-15.2063 -3.78007,-7.82367 -2.98158,2.66631 -0.0115,8.26513 3.78007,7.82367 z m 255.71826,-0.0113 c 10.3784,0.279 1.96188,-15.15045 -4.09526,-7.0922 -1.25596,2.58126 0.3933,8.07048 4.09526,7.0922 z m 49.37857,-1.55882 c 7.15962,-1.67842 18.96928,3.14413 23.11556,-2.7471 3.63075,-7.6602 3.97948,-14.08808 -6.52297,-11.12664 -12.93657,0 -25.87313,0 -38.8097,0 -0.34401,8.20047 -2.07515,17.79968 9.50129,13.97983 4.23861,-0.0354 8.47721,-0.0707 12.71582,-0.10609 z M 60.852743,270.82483 c 11.726427,-2.60246 -6.331363,-11.58145 -7.019682,-3.33799 -1.7179,4.84867 4.511365,2.86643 7.019682,3.33799 z m 30.009162,0.1385 c 9.490045,-3.40389 -3.13195,-8.93637 -9.652071,-6.19118 -1.982363,8.33905 3.906644,5.17541 9.652071,6.19118 z m 316.471855,-0.10332 c 9.48809,-3.57736 -7.49995,-11.53115 -2.80502,-0.29245 0.55818,1.07669 1.93739,0.0199 2.80502,0.29245 z m -302.65035,-0.4722 c 12.67317,-7.86497 -11.450472,-7.10171 0,0 z m 332.42444,0 c 5.94405,-1.99608 20.35268,4.47243 19.65512,-4.16525 -4.44627,-3.49385 -15.45225,-0.42799 -22.36987,-1.45049 -5.90651,1.61219 -19.44754,-4.41014 -16.94036,5.61574 6.5517,0 13.10341,0 19.65511,0 z m -268.11472,-5.61574 c 9.36395,-4.49099 -2.60969,-11.16253 -6.23716,-15.72203 -5.75158,-4.41035 -11.45744,-14.00422 -17.23741,-15.19575 -8.58148,5.43205 5.5151,11.0474 8.27425,16.10415 5.10374,4.83381 9.90037,10.45959 15.20032,14.81363 z m 173.81945,-0.1302 c 8.74884,-0.88451 1.8191,-13.85584 -3.97746,-7.88365 -3.70731,2.87275 0.35859,8.59396 3.97746,7.88365 z M 133.81223,231.0688 c 8.96123,-4.54789 -4.06099,-10.43069 -6.93337,-15.00839 -4.02475,7.09312 2.18803,10.84051 6.93337,15.00839 z m 246.67192,-1.93009 c 8.13803,-5.36598 4.25522,-14.09029 -3.13326,-6.04627 -5.5843,1.31922 1.1425,8.82367 3.13326,6.04627 z M 71.855627,224.75988 c 9.132035,0.74847 4.796432,-15.14539 -2.677295,-10.47603 -5.450458,2.18507 -2.835142,11.21623 2.677295,10.47603 z m 27.337263,0 c 8.01755,0.8281 7.39085,-12.0352 -0.419754,-11.2315 -6.808636,0.1354 -6.487611,11.87195 0.419754,11.2315 z m 313.23639,0 c 9.83461,0.6724 4.3132,-15.76576 -3.01986,-10.27169 -4.96893,2.66757 -2.2314,10.70215 3.01986,10.27169 z m 27.03021,0 c 9.70562,1.10929 5.37202,-15.33675 -2.70262,-10.42015 -4.87647,2.19922 -2.30323,11.09235 2.70262,10.42015 z M 86.825582,200.1911 c 11.231496,0 22.462988,0 33.694488,0 1.99495,-10.52898 -0.88137,-16.15889 -12.21617,-13.28205 -17.319012,0.0985 -34.638023,0.19709 -51.957034,0.29563 -3.819227,7.79892 -5.431292,16.49048 6.285946,12.98642 8.064257,0 16.128513,0 24.19277,0 z m 338.396108,0 c 11.24726,0 22.49452,0 33.74178,0 -1.86602,-7.89033 -2.86714,-16.85588 -13.32246,-13.3374 -18.0537,0 -36.10741,0 -54.16111,0 -1.99842,10.51634 0.89045,16.14539 12.21637,13.3374 7.17514,0 14.35028,0 21.52542,0 z m -291.58284,-4.91377 c 8.36407,0.18056 2.81353,-12.99471 -2.8471,-8.16579 -4.07403,2.2857 -1.23124,8.51815 2.8471,8.16579 z m 244.54678,-0.0214 c 7.83637,-0.88149 3.16386,-12.78186 -3.43802,-8.26772 -2.72378,3.33738 -0.96306,8.11577 3.43802,8.26772 z M 90.610308,172.81434 c 9.969922,0 19.939842,0 29.909762,0 1.97876,-10.5331 -0.8387,-16.24708 -12.21623,-13.36009 -14.143218,0.0674 -28.286436,0.13478 -42.429654,0.20218 -4.271491,7.44884 -8.336924,16.64165 4.32798,13.15783 6.802714,3e-5 13.605428,5e-5 20.408142,8e-5 z m 330.462112,0 c 9.79781,-0.37346 21.1923,0.73222 30.03451,-0.52648 -2.08447,-8.72646 -6.16597,-15.3515 -16.09856,-12.45995 -14.62653,0 -29.25305,0 -43.87958,0 -2.18895,10.48366 0.95831,15.68474 12.08517,12.98643 5.95282,0 11.90564,0 17.85846,0 z m -287.88501,-1.40395 c 9.80876,-0.52252 1.22923,-14.76042 -3.79959,-6.76184 -1.72556,2.62575 0.61187,6.94908 3.79959,6.76184 z m 244.70244,0 c 8.33101,-0.54708 3.2051,-13.26209 -3.04702,-8.07152 -3.23784,3.29912 -0.83494,7.32341 3.04702,8.07152 z M 96.12667,146.67523 c 7.5759,-0.98285 18.70377,1.69441 24.09354,-1.54113 3.69574,-10.97585 -4.66181,-10.34409 -13.21482,-9.5241 -9.735688,0 -19.471374,0 -29.207059,0 -5.146892,7.13284 -8.525443,14.31756 3.787248,11.17693 4.84703,-0.0372 9.694061,-0.0745 14.541091,-0.1117 z m 319.22015,0.16627 c 7.59615,-0.62455 17.77546,1.22433 23.82883,-0.87746 -1.70344,-10.09037 -10.01836,-11.3264 -18.8688,-10.12059 -9.72597,-0.0842 -19.45193,-0.16845 -29.1779,-0.25267 -2.34485,10.3925 2.86952,13.22436 12.56741,11.25072 3.88349,0 7.76697,0 11.65046,0 z m -281.84034,-4.21182 c 8.61219,0.22306 2.91148,-13.48554 -3.1777,-7.68629 -3.31983,2.37247 -0.63334,8.23834 3.1777,7.68629 z m 244.21399,0 c 11.0239,-1.65913 -1.57681,-15.52961 -4.36313,-5.0338 -0.98542,2.09847 2.74878,4.84445 4.36313,5.0338 z M 102.88755,122.27261 c 7.55763,-1.03433 21.39507,4.20935 17.63018,-8.14425 -0.003,-11.20763 -0.006,-22.415255 -0.01,-33.622885 -13.09562,12.708852 -24.383464,27.146465 -35.252913,41.767135 5.877464,0 11.754929,0 17.632393,0 z m 305.52033,0 c 6.24971,-0.99572 23.5809,3.51914 13.48956,-6.02183 -9.27136,-12.80613 -19.6601,-24.791764 -31.11951,-35.686625 0,13.902818 0,27.805635 0,41.708455 5.87665,0 11.7533,0 17.62995,0 z M 133.4375,117.35883 c 8.95622,0.95785 2.37971,-13.54043 -3.08987,-7.01968 -3.37873,1.72713 -0.29561,8.25522 3.08987,7.01968 z m 244.35402,0 c 10.1023,-0.19508 -0.0311,-14.59291 -4.15253,-5.7509 -1.4287,2.44995 1.23112,6.76552 4.15253,5.7509 z M 133.63306,93.491901 c 10.17081,-1.84216 -1.00014,-15.364834 -4.68936,-6.00534 -0.97636,3.16538 1.98808,5.50117 4.68936,6.00534 z m 244.71684,-0.04448 c 8.22394,-1.663079 1.71538,-13.502936 -3.71724,-7.677182 -3.66474,2.49479 0.12406,7.812847 3.71724,7.677182 z M 158.42637,75.240738 c 8.84219,0.816783 3.86823,-13.904573 -2.42756,-8.867746 -4.58676,2.269158 -2.55605,9.525712 2.42756,8.867746 z m 194.31109,0 c 8.46158,0.835669 4.33987,-13.365675 -2.15893,-9.002217 -4.60361,2.243299 -2.90444,9.488133 2.15893,9.002217 z M 183.80603,58.393494 c 8.75735,0.523706 3.54773,-13.3577 -2.7596,-8.214781 -3.44471,1.84825 -1.40326,9.226947 2.7596,8.214781 z m 143.56398,0 c 8.34993,0.567791 3.54145,-13.873207 -2.74572,-8.132428 -4.03245,2.294247 -1.51858,8.687038 2.74572,8.132428 z m -69.77367,-3.363435 c 8.85014,-2.253199 0.0552,-15.902255 -5.4891,-8.952919 -4.75003,3.621241 0.23885,10.705141 5.4891,8.952919 z M 255.7122,176.97037 c -25.37591,0.99842 -47.09126,-24.44255 -42.94211,-49.33766 0.30138,-23.3661 23.16084,-42.57645 46.19896,-40.582613 23.68132,0.913604 43.21597,23.716403 40.53878,47.273023 -0.31602,23.03504 -20.502,43.38137 -43.79563,42.64725 z m -3.92403,-16.18424 c 10.30559,0.58577 -8.78075,-2.6929 -10.53364,-7.58703 -11.97781,-10.50641 -13.02913,-31.20309 0.0341,-41.26959 5.46596,-4.796 12.74994,-5.23291 19.72647,-5.28649 2.68749,-10.516762 -4.69724,-13.091147 -13.69198,-10.362859 -22.90161,4.054649 -36.141,36.017819 -19.26128,53.521849 5.7867,6.97231 14.56691,11.42437 23.72629,10.98412 z"
       id="path1" /></g></svg>
